<?xml version="1.0" standalone="no"?>
<!DOCTYPE svg PUBLIC "-//W3C//DTD SVG 20010904//EN"
 "http://www.w3.org/TR/2001/REC-SVG-20010904/DTD/svg10.dtd">
<svg version="1.0" xmlns="http://www.w3.org/2000/svg"
 width="150" height="100" viewBox="0 0 680.000000 580.000000"
 preserveAspectRatio="xMidYMid meet">

<g transform="translate(0.000000,580.000000) scale(0.100000,-0.100000)"
fill="#f0f0f0" stroke="none">
<path d="M3282 5349 l3 -344 175 -6 c290 -11 501 -51 738 -140 113 -42 325
-143 341 -163 6 -8 -204 -227 -702 -729 -392 -395 -715 -718 -719 -717 -5 0
-8 288 -8 640 l0 640 -360 0 -360 0 0 -1608 c0 -885 2 -1611 4 -1613 2 -2 164
-3 360 -1 l356 2 0 478 0 477 83 83 82 82 655 -655 c360 -360 652 -656 650
-658 -3 -2 -41 -25 -85 -50 -322 -185 -638 -267 -1018 -267 -301 1 -546 50
-809 164 -274 119 -397 204 -624 430 -219 220 -340 392 -454 644 -126 280
-182 546 -182 857 -1 331 63 607 207 904 116 238 258 430 459 622 l80 76 -170
183 c-93 100 -200 218 -239 260 -38 43 -76 79 -82 79 -7 1 -72 -59 -145 -131
-472 -471 -735 -992 -830 -1643 -17 -118 -17 -557 0 -685 77 -565 295 -1055
668 -1500 107 -128 307 -317 448 -422 371 -279 812 -464 1286 -540 124 -20
180 -23 390 -22 207 0 266 4 379 23 611 104 1097 338 1511 728 139 131 241
242 326 353 368 482 569 1046 591 1655 7 197 -7 364 -47 559 -57 280 -123 480
-235 711 -130 266 -326 536 -564 775 -424 427 -940 687 -1546 782 -92 14 -201
22 -373 25 l-242 5 2 -343z m1859 -1217 c264 -361 420 -817 419 -1225 -1 -288
-85 -642 -218 -918 -63 -130 -180 -331 -211 -362 -17 -17 -42 7 -669 638 -359
361 -652 661 -652 668 -1 10 1257 1273 1270 1275 3 1 30 -33 61 -76z m-4019
-1042 c128 -36 171 -187 80 -283 -15 -16 -39 -35 -54 -43 -53 -28 -150 -11
-196 33 -48 45 -67 133 -44 193 14 36 64 79 108 95 48 17 59 18 106 5z m4859
-24 c44 -30 79 -91 79 -141 0 -127 -150 -216 -259 -154 -74 42 -112 122 -91
198 31 116 168 165 271 97z"/>
<path d="M2460 5486 c-61 -16 -109 -46 -158 -100 -50 -54 -67 -86 -81 -156
-30 -144 55 -302 197 -368 48 -23 71 -27 142 -27 76 0 93 4 152 33 112 55 177
150 186 272 17 238 -201 410 -438 346z"/>
</g>
</svg>
